/* XPM */
static char * tweemeister_xpm[] = {
"64 64 142 2",
"  	c None",
". 	c #DAE832",
"+ 	c #B6C83C",
"@ 	c #D9E434",
"# 	c #D8DA3E",
"$ 	c #D8D83F",
"% 	c #D8DA3D",
"& 	c #D9E732",
"* 	c #CE68A8",
"= 	c #CA4CBA",
"- 	c #CC58B1",
"; 	c #D8DC3B",
"> 	c #DAE833",
", 	c #D7E532",
"' 	c #D5E333",
") 	c #BFD039",
"! 	c #D8D542",
"~ 	c #C949BB",
"{ 	c #FDF8FD",
"] 	c #CB55B6",
"^ 	c #DBE838",
"/ 	c #DFEB48",
"( 	c #DDEA40",
"_ 	c #D8E632",
": 	c #D3E233",
"< 	c #C1D238",
"[ 	c #BECF39",
"} 	c #D4E333",
"| 	c #D7D344",
"1 	c #CF72A2",
"2 	c #CC59B4",
"3 	c #D28497",
"4 	c #D9DB3E",
"5 	c #DFEB4A",
"6 	c #F2F79E",
"7 	c #F8FBBA",
"8 	c #D0DF34",
"9 	c #BDCE39",
"0 	c #D9E236",
"a 	c #D8DB3D",
"b 	c #D8D642",
"c 	c #D9E038",
"d 	c #DAE634",
"e 	c #DEEA45",
"f 	c #F2F5AF",
"g 	c #FCFDCD",
"h 	c #FEFFD1",
"i 	c #D4E233",
"j 	c #CCDC35",
"k 	c #BACC3A",
"l 	c #BDCE3A",
"m 	c #D3E133",
"n 	c #DCE93F",
"o 	c #F4F9A9",
"p 	c #ACAD8E",
"q 	c #D1E034",
"r 	c #B8C93B",
"s 	c #BCCD3A",
"t 	c #D2E134",
"u 	c #DAE835",
"v 	c #E3ED5A",
"w 	c #FCFECA",
"x 	c #FCFDCC",
"y 	c #BFCF4F",
"z 	c #B6C83B",
"A 	c #B9CA3B",
"B 	c #BBCD3A",
"C 	c #BBCC3A",
"D 	c #DDEA42",
"E 	c #F4F8A5",
"F 	c #FDFED0",
"G 	c #BCCD4A",
"H 	c #D6E433",
"I 	c #D7E632",
"J 	c #DBE837",
"K 	c #FAFCC1",
"L 	c #FAFDC3",
"M 	c #C3D258",
"N 	c #D6E532",
"O 	c #CDDC35",
"P 	c #C3D338",
"Q 	c #C3D438",
"R 	c #FCFDC8",
"S 	c #C5D35B",
"T 	c #C7D737",
"U 	c #D2E034",
"V 	c #CBDB36",
"W 	c #C4D438",
"X 	c #FBFDC7",
"Y 	c #FCFECB",
"Z 	c #FCFECC",
"` 	c #F4F8A6",
" .	c #B9CA42",
"..	c #B7C93B",
"+.	c #C8D836",
"@.	c #CADA36",
"#.	c #BBCC48",
"$.	c #F6FAB0",
"%.	c #F8FBB8",
"&.	c #B6C83D",
"*.	c #D5E433",
"=.	c #D2E133",
"-.	c #B7C940",
";.	c #C1D053",
">.	c #F5F9AB",
",.	c #FDFECF",
"'.	c #B8CA3B",
").	c #B8C941",
"!.	c #FAFCC0",
"~.	c #FBFDC3",
"{.	c #EFF4B3",
"].	c #BECE4E",
"^.	c #ECF1AD",
"/.	c #B7C83E",
"(.	c #C0D139",
"_.	c #C9D936",
":.	c #D6E432",
"<.	c #CEDD35",
"[.	c #CCDB35",
"}.	c #FFFFFF",
"|.	c #C0D138",
"1.	c #CFDF34",
"2.	c #B9CB3A",
"3.	c #CFDE34",
"4.	c #C6D637",
"5.	c #CFDE35",
"6.	c #CDDD35",
"7.	c #CEDE35",
"8.	c #CBDB35",
"9.	c #C5D537",
"0.	c #C99A5D",
"a.	c #CAD936",
"b.	c #CBDA36",
"c.	c #C79A5E",
"d.	c #C0D039",
"e.	c #C9D836",
"f.	c #C2D338",
"g.	c #BCCE3A",
"h.	c #C2D238",
"i.	c #BACB3A",
"j.	c #C39A61",
"k.	c #BE9A66",
"                                                                                                                                ",
"                                                                                                                                ",
"                                              . . .                                                                             ",
"                        . . . . .           . . . . . . .                                                                       ",
"                        . . . . . .               . . . . . . .                                                                 ",
"                      . . . . . . . .               . . . . . . . .                                                             ",
"                    . . . . . . . . .               . . . . . . . . . .                         + + + + + +                     ",
"                    . . . . . . . . .               . . . . . . . . . . . . .                   + + + + + + +                   ",
"                  . . . . . . . . . . .               . . . . . . . . . . . . .                 + + + + + + + +                 ",
"                . . . . . . . . . . . . .             . . . . . . @ # $ % . . . . .           + + + + + + + + + +               ",
"                . . . . . . . . & & & & . .           . . . . . . # * = - ; . . > .         + + + + + + + + + + + + +           ",
"              . . . . . . . . & , ' ) , . . .         . . . . . & ! ~ { ] ! . ^ / (       + + + + + + + + + + + + + +           ",
"              . . . . . . . . _ : < [ } . . . .       . . . . . . | 1 2 3 4 > 5 6 7     + + + + + + + + + + + + + + + +         ",
"            . . . . . . . . & , 8 [ 9 : & . . .     . . . . . . . 0 a b c d e f g h h   + + + + + + + + + + + + + + + +         ",
"            . . . . . . . . & i j k l m & . . . .   . & . . . . . . . . . n o g p h p h + + + + + + + + + + + + + + + + +       ",
"            . . . . . . . & _ q < r s t & . . . .   + _ & . . . . . . . u v w h h p h x y + + + + + + + + + + + + + + + + +     ",
"          . . . . . . . . & _ 8 [ z A q , . . . & B A C , & . . . . . . D E F h h h h F E G + + + + + + + + + + + + + + + + +   ",
"          . . . . . . . & & _ t k + z 9 H . . . _ q ) [ : I . . . . . . J K h h h h h h L M + + + + + + + + + + + + + + + + +   ",
"          . . . . . . . & , N ' z + z C i & . . & ' O P Q i & . . . . . .   h h h h h h R S + + + + + + + + + + + + + + + + +   ",
"        . . . . . . . . & ' T I + + z A U I . . . _ m V W 8 H & . . . .       X Y F h h Z `  .+ + + + + + + + + + + + + + + + + ",
"        . . . . . . . . & m [ ,     + ..) ' & . . & , q +.@.H & . . . .       #.$.w h h F %.&.+ + + + + + + + + + + + + + + + + ",
"        . . . . . . . . & i C z       ..9 i & . . . _ *.=.' , & . . . .     + -.;.>.L h ,.L + + + +   + + + + + + + + + + + + + ",
"      . . . . . . . . & & : r +         '.' & . . . & _ _ & & & . . & .   + + + &.).;.!.~.{.+ + +       + + + + + + + + + + + + ",
"      . . . . . . . . & ' t z           + + . . . . . . . . . . . & _ ,   + + + + + + ].^./.+             + + + + + + + + + + + ",
"    . . . . . . . . & , q [ +             + + . . . . . . . . . & _ *.8 (...+ + + + + &.&.+               + + + + + + + + + + + ",
"    . . . . . . . & _ } O k                 + . . . . . . . . . & , m _.[ ..+ + + + + + +                   + + + + + + + + + + ",
"    . . . . . & & , *.m 9 ..                  . . . . . . . . . _ N 8 T s z + + + + + +                       + + + + + + + + + ",
"  . . . . . . & :.@.q q z                   . . . . . . . . . . & *.<.P '.z + + + +                           + + + + + + + + + ",
"  . . . . . & _ t T <.k +                   . . . . . . . . . & & ' [.[ z + + + + }.}.                          + + + + + + + + ",
". . . . . . & , 8 |.t z                   . . . . . . . . . . & _ : @.s + + + +   }.}.}.                        + + + + + + + + ",
". . . . . . & , 1.2.z +                   . . . . . . . . . . _ ' 3.T ..+ + +     }.}.}.}.}.                    + + + + + + + + ",
". . . . . . & N 3...+                   . . . . . . . . . . & N q 4.k + +           }.}.}.}.}.}.}.}.}.}.}.}.      + + + + + + + ",
". . . . . & I *.5.z                   . . . . . . . . . . . _ ' O (.z +             }.}.}.}.}.}.}.}.}.}.}.}.}.}.  + + + + + + + ",
". . . . & , } 8 6.+                   . . . . . . . . . . & , : V C + +             }.}.}.}.}.}.}.}.}.}.}.}.}.}.}.  + + + + + + ",
". . . . & } 7.8.C +                 . . . . . . . . . . . & *.8 _.z + +               }.}.}.}.}.}.}.}.}.}.}.}.}.}.}.+ + + + + + ",
". . . & _ t 9.7.+                 . . . . . . . . . . . & _ : j ) z + +               }.}.}.}.}.}.}.}.}.}.}.}.}.}.}.  + + + + + ",
". . . & _ t s z +                 . . . . . . . . . . . & N q _.9 z + +             }.}.}.}.}.}.}.}.}.}.}.}.}.}.}.}.}.+ + + + + ",
". . . & _ : '.+                 . . . . . . . . . . . & _ ' 3.T B + + +             }.}.}.}.}.}.}.}.}.}.}.}.}.}.}.}.}.  + + + + ",
". . . & _ : '.+               . . . . . . . . . . . . & _ i O Q 2.+ + +             }.}.}.}.}.}.}.}.}.}.}.}.}.}.}.}.}.  + + + + ",
". . & _ ' : ..          0.0.. . . . . . . . . . . . . & , t a.) ..+ + +             }.}.}.}.}.}.}.}.}.}.}.}.}.}.}.}.}.  + + + + ",
". . _ :.q '.z     0.0.0.0.0.. . . . . . . . . . . . & _ ' 3.9.C z + + +             }.}.}.}.}.}.}.}.}.}.}.}.}.}.}.}.}.  + + + + ",
". . H b.<...  0.0.0.0.0.0.. . . . . . . . . . . . . & :.q @.) ..+ + + +             }.}.}.}.}.}.}.}.}.}.}.}.}.}.}.}.}.  + + + + ",
". . : +.[.z 0.0.0.0.0.0.0.. . . . . . . . . . . . & , : j P 2.z + + + + 0.          }.}.}.}.}.}.}.}.}.}.}.}.}.}.}.}.}.    + + + ",
". & : 9.b.+ 0.0.0.0.0.0.. . . . . . . . . . . . . _ } 7.T s z + + + + 0.0.0.c.        }.}.}.}.}.}.}.}.}.}.}.}.}.}.}.      + + + ",
". . i d.2.+ 0.0.0.0.0.. . . . . . . . . . . . . & :.8 e.(.'.+ + + + + 0.0.0.0.0.0.0.  }.}.}.}.}.}.}.}.}.}.}.}.}.}.}.      + + + ",
". . , 2...0.0.0.0.0.. . . . . . . . . . . . . & , t b.f.B z + + + + + 0.0.0.0.0.0.0.0.0.}.}.}.}.}.}.}.}.}.}.}.}.}.        + + + ",
"0.. . + + 0.0.0.0.. . . . . . . . . . . . . & _ i O Q s ..+ + + + + 0.0.0.0.0.0.0.0.0.0.0.}.}.}.}.}.}.}.}.}.}.}.          + + + ",
"0.0.. + 0.0.0.. . . . . . . . . . . . . . . _ *.3.9.g...z + + + + 0.0.0.0.0.0.0.0.0.0.0.0.0.0.}.}.}.}.}.}.}.              + + + ",
"0.0.0.0.0.0.. . . . . . . . . . . . . . . & , q @.) r z + + + + h 0.0.0.0.0.0.0.0.0.0.0.0.0.0.0.0.0.0.0.0.                + + + ",
"0.0.0.0.. . . . . . . . . . . . . . . . & _ : [.h.i.z + + + + h h h 0.0.0.0.0.0.0.0.0.0.0.0.0.0.0.0.0.0.0.0.0.                  ",
"0.0.0.0.. . . . . . . . . . . . . . . & _ H 3.W C z + + + + 0.0.h h 0.0.0.0.0.0.j.0.0.0.0.0.0.0.0.0.0.0.0.0.0.0.0.0.    0.0.0.0.",
"0.0.0.. . . . . . . . . . . . . . . & _ H q b.s ..+ + + + 0.0.0.0.h h h 0.0.0.0.k.0.0.0.0.0.0.0.0.0.0.0.0.0.0.0.0.0.0.0.0.0.0.0.",
"0.0.0.. . . . . . . . . . . . . . . & *.8 @.B ..z + + + + 0.0.0.0.0.h h h 0.0.0.0.0.0.0.0.0.0.0.0.0.0.0.0.0.0.0.0.0.0.0.0.0.0.0.",
"0.0.. . . . . . . . . . . . . . . . , 1.+.[ z + + + + 0.0.0.0.0.0.0.0.h h h 0.0.0.0.0.0.0.0.0.0.0.0.0.0.0.0.0.0.0.0.0.0.0.0.0.0.",
"0.0.. . . . . . . . . . . . . . . & : f.g...+ + + + 0.0.0.0.0.0.0.0.0.0.h h h 0.0.0.0.0.0.0.0.0.0.0.0.0.0.0.0.0.0.0.0.0.0.0.0.0.",
"0.. . . . . . . . . . . . . . . . . C s 2.z + + 0.0.0.0.0.0.0.0.0.0.0.0.0.h h h 0.0.0.h h h h 0.0.0.0.0.0.0.0.0.0.0.0.0.0.0.0.0.",
"0.. . . . . . . . . . . . . . . . . 0.0.+ 0.0.0.0.0.0.0.0.0.0.0.0.0.0.0.0.0.h h h 0.h h h h h h 0.0.0.0.0.0.0.0.0.0.0.0.0.0.0.0.",
"0.0.0.. . . . . . . 0.0.h h h h h 0.0.0.0.0.0.0.0.0.0.0.0.0.0.0.0.0.0.0.0.0.0.h h h h h h h h h 0.0.0.0.0.0.0.0.0.0.0.0.0.0.0.0.",
"0.0.0.0.0.0.h h 0.0.0.0.h h h h h h h 0.0.0.0.0.0.0.0.0.0.0.0.0.0.0.0.0.h h h h h h h h h h h h h 0.0.0.0.0.0.0.0.0.0.0.0.0.0.0.",
"0.0.0.0.0.h h 0.0.0.0.0.0.0.0.0.h h h 0.0.0.0.0.0.0.0.0.0.0.0.0.0.0.h h h h h h h h 0.0.0.0.0.h h 0.0.0.0.0.0.0.0.0.0.0.0.0.0.0.",
"0.0.0.0.0.h h 0.0.0.0.0.0.0.0.0.0.0.0.0.0.0.0.0.0.0.0.0.0.0.0.0.0.0.h h 0.0.0.0.0.0.0.0.0.0.0.0.h 0.0.0.0.0.0.0.0.0.0.0.0.0.0.0.",
"0.0.0.0.0.0.0.0.0.0.0.0.0.0.0.0.0.0.0.0.0.0.0.0.0.0.0.0.0.0.0.0.0.0.0.0.0.0.0.0.0.0.0.0.0.0.0.0.0.0.0.0.0.0.0.0.0.0.0.0.0.0.0.0.",
"0.0.0.0.0.0.0.0.0.0.0.0.0.0.0.0.0.0.0.0.0.0.0.0.0.0.0.0.0.0.0.0.0.0.0.0.0.0.0.0.0.0.0.0.0.0.0.0.0.0.0.0.0.0.0.0.0.0.0.0.0.0.0.0.",
"0.0.0.0.0.0.0.0.0.0.0.0.0.0.0.0.0.0.0.0.0.0.0.0.0.0.0.0.0.0.0.0.0.0.0.0.0.0.0.0.0.0.0.0.0.0.0.0.0.0.0.0.0.0.0.0.0.0.0.0.0.0.0.0."};
